<?xml version="1.0" encoding="utf-8"?>
<!-- Generator: Adobe Illustrator 24.3.0, SVG Export Plug-In . SVG Version: 6.00 Build 0)  -->
<svg version="1.1" id="Layer_12" xmlns="http://www.w3.org/2000/svg" xmlns:xlink="http://www.w3.org/1999/xlink" x="0px" y="0px"
	 viewBox="0 0 423.51 407.3" style="enable-background:new 0 0 423.51 407.3;" xml:space="preserve">
<style type="text/css">
	.st0{fill:#682E42;}
	.st1{fill:#804851;}
	.st2{fill:#DB263A;}
	.st3{fill:#C4243B;}
	.st4{fill:#EF414F;}
	.st5{opacity:0.36;fill:#5F5F61;}
	.st6{fill:#941A1D;}
	.st7{fill:#660C0F;}
	.st8{fill:#F4E1BD;}
	.st9{fill:#4C63AE;}
	.st10{opacity:0.19;}
	.st11{fill:#FFFFFF;}
	.st12{fill:#F3F1DE;}
	.st13{fill:#70C4EE;}
	.st14{fill:#010101;}
	.st15{fill:#EE2B34;}
	.st16{fill:#F3C527;}
	.st17{fill:#E7997B;}
	.st18{fill:#EC9827;}
	.st19{fill:#EB9C7E;}
	.st20{fill:#BB6040;}
	.st21{fill:#BB6140;}
	.st22{fill:#4F2C23;}
	.st23{fill:#FDCD0A;}
	.st24{fill:none;stroke:#F3C527;stroke-linecap:round;stroke-miterlimit:10;}
	.st25{fill:#729D61;}
	.st26{fill:#233E44;}
	.st27{fill:none;stroke:#9BC191;stroke-width:0.5;stroke-miterlimit:10;}
	.st28{fill:#B5CBAD;}
	.st29{fill:none;}
	.st30{fill:#ECE8E5;}
	.st31{fill:none;stroke:#332533;stroke-width:0.5;stroke-miterlimit:10;}
	.st32{fill:#AD203B;}
	.st33{fill:#020202;}
	.st34{fill:#68899B;}
	.st35{fill:#CE8029;}
	.st36{fill:none;stroke:#5B7785;stroke-miterlimit:10;}
</style>
<g>
	<path class="st0" d="M320.32,348h-5.53c0,0-8.44-29.13-9.99-33.98c-1.55-4.85-8.34-7.28-8.34-7.28h-6.41c-4.85,2.62-9.03,0-9.03,0
		h-2.72c-1.93,1.55-8.15,1.55-8.73,0.59c-0.58-0.98-7.69-0.91-7.69-0.91L258.54,348h-7.37c0,0-2.92-31.7-2.8-34.63
		c0.12-2.92,1.41-9.32-6.79-8.89c-8.21,0.41-11.41-3.62-11.41-3.62c-4.03,2.09-6.26,0.83-12.93-1.9
		c-6.68-2.73-10.85,6.07-10.85,6.07L192.63,348h-5.42l18.08-64.24l4.81-0.31l45.87-2.96l7.76-0.5l19.83-1.28l22.8,13.77L320.32,348z
		"/>
	<polygon class="st1" points="210.09,283.45 191.81,348 187.2,348 205.28,283.76 	"/>
	<polygon class="st1" points="264.12,274.66 263.71,279.99 258.54,348 252.7,348 255.96,280.49 256.14,276.74 	"/>
	<polygon class="st1" points="296.52,283.45 304.79,314.02 314.79,348 320.32,348 306.34,292.48 301.73,283.45 	"/>
	<path class="st2" d="M354.16,181.63l-47.09,114.71l-2.04-2.77l-3.94,5.4c-12.41-0.3-41.74-13.58-41.74-13.58
		c-23.06,14.75-77.8-3.35-77.94-13.43c-0.15-10.07,10.36-8.99,10.36-8.99l6.57-15.47c3.04-7.15,11.27-10.51,18.44-7.54l31.35,12.98
		l3.67-5.29c0,0,7.79-29.89,12.8-44.45c5.02-14.57,1.8-28.5,13.06-33.15c4.64-1.92,12.3,2.93,15.92,5.38
		c3.62,2.46,16.77,4.85,21.9,4.8c5.13-0.05,12.99-3.57,20.57-8.31c7.58-4.74,14.61,2.68,16.78,5.19c0.84,0.98,1.23,1.87,1.4,2.61
		C354.47,180.88,354.16,181.63,354.16,181.63z"/>
	<path class="st3" d="M354.16,181.63l-47.09,114.71l-2.04-2.77l-3.94,5.4c-12.41-0.3-41.74-13.58-41.74-13.58
		c-23.06,14.75-77.8-3.35-77.94-13.43c-0.15-10.07,10.36-8.99,10.36-8.99s31.4,8.46,51.1,2.73c19.68-5.73,32.57-5.53,34.37-3.48
		l5.5-12.88c1.26-2.96,4.48-4.58,7.61-3.83l27.51,6.59l36.37-72.38C354.47,180.88,354.16,181.63,354.16,181.63z"/>
	<path class="st4" d="M277.23,262.22c-50.65,38.59-95.83,9.74-95.83,9.74c-0.15-10.07,10.36-8.99,10.36-8.99s31.4,8.46,51.1,2.73
		C262.54,259.97,275.43,260.17,277.23,262.22z"/>
	<g>
		<polygon class="st5" points="29.59,105.54 31.54,108.65 33.77,108.65 37.29,122.64 43.4,122.64 46.8,108.07 136.44,108.26 
			136.44,121.58 140.04,108.45 142.46,108.45 144.61,105.64 		"/>
		<rect x="29.57" y="99.98" class="st6" width="114.49" height="6.57"/>
		<rect x="37.29" y="105.56" class="st7" width="6.09" height="17.53"/>
		<rect x="131.08" y="105.56" class="st7" width="6.09" height="17.53"/>
		<path class="st8" d="M145.64,50.5v50.6h-3.18V50.5c0.37,0.43,0.94,0.71,1.59,0.71S145.28,50.92,145.64,50.5z"/>
		<rect x="145.85" y="50.21" class="st9" width="1.1" height="50.89"/>
		<rect x="109.81" y="50.21" class="st9" width="32.75" height="50.89"/>
		<g class="st10">
			<polygon class="st11" points="109.91,63.93 109.91,67.06 113.01,63.96 			"/>
			<polygon class="st11" points="116.09,60.86 113.01,63.96 113.01,67.06 116.09,63.93 			"/>
			<polygon class="st11" points="109.91,67.06 113.01,67.06 116.09,70.1 113,70.18 			"/>
			<polygon class="st11" points="109.91,76.23 116.09,70.1 116.09,73.16 113.01,76.23 			"/>
			<polygon class="st11" points="109.91,70.1 113,73.16 109.91,73.16 			"/>
			<polygon class="st11" points="119.18,70.18 116.09,73.16 116.09,76.23 119.18,73.21 			"/>
			<polygon class="st11" points="125.34,67.06 119.18,73.21 122.26,73.21 125.34,70.1 			"/>
			<polygon class="st11" points="125.34,79.37 119.18,73.21 119.18,76.35 122.2,79.37 			"/>
			<polygon class="st11" points="119.18,79.37 116.09,79.37 113.01,76.23 116.09,76.23 			"/>
			<polygon class="st11" points="109.91,76.23 116.09,82.44 113.01,82.44 109.91,79.37 			"/>
			<polygon class="st11" points="119.18,79.37 116.09,82.44 116.09,85.55 122.2,79.37 			"/>
			<polygon class="st11" points="128.47,79.33 125.34,79.37 119.18,85.55 119.18,88.59 			"/>
			<polygon class="st11" points="131.54,76.29 128.47,79.33 128.47,82.46 131.54,79.37 			"/>
			<polygon class="st11" points="125.34,82.46 128.47,82.46 134.61,88.59 131.54,88.59 			"/>
			<polygon class="st11" points="122.2,91.73 128.47,85.55 125.34,85.55 122.2,88.64 			"/>
			<polygon class="st11" points="116.09,91.73 119.18,88.59 122.2,88.64 119.18,91.73 			"/>
			<polygon class="st11" points="109.86,91.73 113,88.64 116.09,88.64 109.93,94.84 			"/>
			<polygon class="st11" points="109.93,85.52 109.93,88.64 113.09,85.55 			"/>
			<polygon class="st11" points="109.86,82.44 113.01,82.44 109.93,85.52 			"/>
			<polygon class="st11" points="119.18,88.59 113.01,82.44 113.09,85.55 116.09,88.64 			"/>
			<polygon class="st11" points="116.09,91.73 116.09,94.84 113.09,97.93 110.02,97.93 			"/>
			<polygon class="st11" points="119.18,94.84 116.09,94.84 119.18,91.73 122.2,91.73 			"/>
			<polygon class="st11" points="113.05,101 119.18,94.84 119.18,97.84 116.09,101 			"/>
			<polygon class="st11" points="119.15,101.09 119.18,97.84 122.31,94.83 122.31,97.92 			"/>
			<polygon class="st11" points="125.44,94.83 122.31,94.83 128.47,88.59 128.47,91.74 			"/>
			<polygon class="st11" points="134.61,91.71 131.54,88.59 128.47,88.59 131.54,91.74 			"/>
			<polygon class="st11" points="134.69,94.84 131.62,94.83 137.77,88.64 137.77,91.71 			"/>
			<polygon class="st11" points="128.47,91.74 134.69,97.84 131.58,97.96 128.47,94.85 			"/>
			<polygon class="st11" points="137.77,94.83 134.69,97.84 134.61,101.09 140.77,94.85 			"/>
			<polygon class="st11" points="122.31,97.92 122.31,101 125.37,97.94 128.47,94.85 125.44,94.83 			"/>
			<polygon class="st11" points="128.47,97.92 131.62,101 128.47,101 125.37,97.94 			"/>
			<polygon class="st11" points="131.58,97.96 131.62,101 134.61,101 			"/>
			<polygon class="st11" points="140.77,94.85 140.77,97.92 142.55,97.92 			"/>
			<polygon class="st11" points="140.77,101 140.77,97.92 137.77,101 			"/>
			<polygon class="st11" points="133.24,55.04 133.24,58.18 136.35,55.04 136.35,51.98 			"/>
			<polygon class="st11" points="141.18,50.21 136.35,55.04 139.43,55.08 142.55,51.98 142.55,50.21 			"/>
			<polygon class="st11" points="137.7,50.21 139.41,51.98 139.41,50.21 			"/>
			<polygon class="st11" points="109.86,97.96 113.05,101 109.86,101 			"/>
		</g>
		<rect x="118.06" y="70.58" class="st11" width="18.29" height="1.6"/>
		<rect x="118.06" y="73.74" class="st11" width="14.18" height="1.6"/>
		<rect x="118.06" y="76.91" class="st11" width="14.18" height="1.6"/>
		<path class="st12" d="M105.69,55.39v45.7h-3.18v-45.7c0.37,0.39,0.94,0.64,1.59,0.64S105.32,55.78,105.69,55.39z"/>
		<rect x="105.9" y="55.13" class="st13" width="1.1" height="45.96"/>
		<rect x="69.39" y="55.13" class="st13" width="33.21" height="45.96"/>
		<path class="st12" d="M65.06,45.65v55.45h-3.18V45.65c0.37,0.47,0.94,0.78,1.59,0.78S64.69,46.12,65.06,45.65z"/>
		<rect x="65.27" y="45.33" class="st14" width="1.1" height="55.76"/>
		<rect x="26.2" y="45.33" class="st14" width="35.77" height="55.76"/>
		<path d="M181.55,36.81c-13.04,2.3-18.59,7.04-15.18,17.93s9.24,20.24,6.6,27.61c-2.64,7.37-23.32,22.77-15.51,31.35l76.89,1.1
			c0,0,14.19-15.51-3.96-29.04s-25.63-32.45-26.62-34.54C202.78,49.13,194.64,34.5,181.55,36.81z"/>
		<path class="st15" d="M114.78,67.33l-5.36,38.99l-0.24,1.77l-0.18,1.32l-0.15,1.09l-0.63,4.58l-0.26,1.92l-0.09,0.69l-0.31,2.24
			l-0.43,3.11l-0.01,0.05c-0.76,0.41-1.27,1.21-1.27,2.14c0,0.68,0.28,1.3,0.74,1.74l-0.15,1.13l-36.65-4.58
			c-1.15-0.15-1.96-1.2-1.81-2.35l0.88-6.28l0.31-2.24l0.87-6.23l0.23-1.61l5.94-42.48L114.78,67.33z"/>
		<path class="st12" d="M107.12,123.03l-0.01,0.05c-0.76,0.41-1.27,1.22-1.27,2.14c0,0.68,0.28,1.3,0.74,1.74l-35.53-4.69
			c-1.11-0.15-1.89-1.19-1.7-2.3c0.17-0.97,1-1.66,1.96-1.66c0.08,0,0.18,0,0.26,0.02L107.12,123.03z"/>
		<path class="st16" d="M231.69,156.81h-55.7c0,0,0.27-11.33-7.54-21.56c0,0-1.61,1.46-3.88,3.48c-4.81,4.3-12.59,11.16-14.16,12.14
			c-2.31,1.43-15.29,9.68-22-5.72c-6.71-15.4-14.52-37.07-14.52-37.07l-3.85-5.17l1.32-9.79c0,0-1.65-4.95-1.87-6.82
			c-0.22-1.87-3.3-5.61-3.3-6.16c0-0.55-1.32-3.44,0.55-4.2c0,0,5.83,6.5,7.48,7.38c1.65,0.88,10.56,8.91,13.09,14.96
			c2.53,6.05,15.95,32.12,15.95,32.12l8.8-10.01c0,0,0.12-0.17,0.33-0.46c1.59-2.27,8.55-12.23,10.02-14.27
			c1.65-2.31,10.01-12.54,16.39-13.7c6.38-1.15,31.13-1.49,31.13-1.49s9.9,5.28,12.43,7.48c2.53,2.2,9.9,8.25,13.2,19.25
			c0.96,3.19,2.18,7.87,3.42,12.9C242.02,142.41,231.69,156.81,231.69,156.81z"/>
		<path class="st17" d="M245.23,156.81H226.9l-1.01-4.59l-2.02,0.19l-4.05-16.05l19.15-6.24
			C242.02,142.41,245.23,156.81,245.23,156.81z"/>
		<path class="st17" d="M164.56,138.73L164.56,138.73c-4.81,4.3-12.59,11.17-14.16,12.14c-2.31,1.43-15.29,9.68-22-5.72
			c-6.71-15.4-14.52-37.07-14.52-37.07l-3.85-5.17l1.32-9.79c0,0-1.65-4.95-1.87-6.82c-0.22-1.87-3.3-5.61-3.3-6.16
			c0-0.55-1.32-3.44,0.55-4.2c0,0,5.83,6.5,7.48,7.38c1.65,0.88,10.56,8.91,13.09,14.96c2.53,6.05,15.95,32.12,15.95,32.12
			l8.8-10.01c0,0,0.12-0.17,0.33-0.46L164.56,138.73z"/>
		<path class="st18" d="M168.45,135.25c0,0-1.61,1.46-3.88,3.48c0,0-3.87-18.12,4.1-26C168.56,113.03,163.77,127.04,168.45,135.25z"
			/>
		<path class="st19" d="M203.76,96.48c0,0.55-2.42,15.07-11.33,16.06c-8.91,0.99-20.13-1.21-13.64-20.57l2.09-0.72
			c-0.74-3.5-2.35-11.02-3.08-14.46c-16.55,3.56-11.71-27.07-10.24-31.35c0,0,16.17-1.98,23.55,11.66
			c6.16-7.41,12.99,3.95,2.86,5.94C193.97,63.04,203.76,95.93,203.76,96.48z"/>
		<path class="st20" d="M188.8,69.37c-0.07,0.26-2.3,8.1-9.74,13.3l-1.25-5.88C177.8,76.79,185.38,76.07,188.8,69.37z"/>
		<polygon class="st20" points="182.92,99.28 178.79,91.97 180.88,91.25 		"/>
		<g>
			<path d="M183.3,55.45c-0.11,0-0.22-0.05-0.28-0.15c-1.96-2.99-5.49-1.07-5.64-0.99c-0.16,0.09-0.37,0.03-0.46-0.13
				c-0.09-0.16-0.03-0.37,0.13-0.46c0.04-0.02,4.23-2.31,6.54,1.21c0.1,0.16,0.06,0.37-0.1,0.47
				C183.43,55.43,183.36,55.45,183.3,55.45z"/>
		</g>
		<g>
			<path d="M169.9,54.54c-0.1,0-0.21-0.05-0.27-0.14c-1.59-2.16-4.12-1.05-4.15-1.04c-0.17,0.08-0.37,0-0.45-0.17
				c-0.08-0.17,0-0.37,0.17-0.45c0.03-0.01,3.05-1.34,4.97,1.25c0.11,0.15,0.08,0.36-0.07,0.47
				C170.04,54.52,169.96,54.54,169.9,54.54z"/>
		</g>
		<g>
			<path class="st21" d="M172.29,66.83c-0.03,0-0.06,0-0.08-0.01c-1.81-0.47-2.9-1.2-3.23-2.19c-0.26-0.76-0.03-1.63,0.65-2.49
				c1.13-1.44,1.38-5.57,1.38-5.61c0.01-0.19,0.16-0.33,0.36-0.32c0.19,0.01,0.33,0.17,0.32,0.36c-0.01,0.18-0.26,4.39-1.52,5.99
				c-0.37,0.47-0.77,1.18-0.54,1.86c0.25,0.74,1.2,1.34,2.76,1.75c0.18,0.05,0.29,0.23,0.24,0.41
				C172.58,66.73,172.44,66.83,172.29,66.83z"/>
		</g>
		<g>
			<path class="st21" d="M173.77,70.65c-0.61,0-1.03-0.09-1.04-0.09c-0.18-0.04-0.3-0.22-0.26-0.4c0.04-0.18,0.22-0.3,0.4-0.26
				c0.12,0.03,2.96,0.62,4.04-1.65c0.08-0.17,0.28-0.24,0.45-0.16c0.17,0.08,0.24,0.28,0.16,0.45
				C176.66,70.33,174.9,70.65,173.77,70.65z"/>
		</g>
		<ellipse class="st22" cx="178.07" cy="58.07" rx="0.86" ry="1.12"/>
		<g>
			<path class="st22" d="M180.79,59.23c-0.14,0-0.25-0.11-0.25-0.25c0-0.02-0.03-0.71-0.57-1.16c-0.42-0.36-1.05-0.48-1.87-0.37
				c-0.14,0.02-0.27-0.08-0.29-0.22c-0.02-0.14,0.08-0.27,0.22-0.29c0.97-0.13,1.73,0.04,2.27,0.5c0.71,0.6,0.74,1.49,0.74,1.53
				C181.05,59.11,180.93,59.23,180.79,59.23C180.79,59.23,180.79,59.23,180.79,59.23z"/>
		</g>
		<ellipse class="st22" cx="167.35" cy="56.96" rx="0.86" ry="1.12"/>
		<g>
			<path class="st22" d="M169.61,58.13c-0.14,0-0.25-0.11-0.25-0.25c0-0.01-0.03-0.77-0.57-1.22c-0.37-0.31-0.9-0.41-1.57-0.31
				c-0.14,0.02-0.27-0.07-0.29-0.21c-0.02-0.14,0.08-0.27,0.21-0.29c0.83-0.12,1.5,0.02,1.98,0.43c0.72,0.6,0.75,1.55,0.75,1.59
				C169.87,58.01,169.75,58.12,169.61,58.13C169.61,58.13,169.61,58.13,169.61,58.13z"/>
		</g>
		<g>
			<path class="st20" d="M141.17,144.92c-0.01,0-0.02,0-0.04,0c-0.14-0.02-0.23-0.15-0.21-0.29l2.09-14.26
				c0.02-0.14,0.15-0.23,0.29-0.21c0.14,0.02,0.23,0.15,0.21,0.29l-2.09,14.26C141.4,144.83,141.29,144.92,141.17,144.92z"/>
		</g>
		<path d="M203.76,120.61c-7.35-0.16-10.3-12.9-7.57-25.35s-2.22-32.23-2.22-32.23l15.95,27.44c0,0-1.49,6.52-0.41,10.91
			S213.63,120.83,203.76,120.61z"/>
		<g>
			<path class="st21" d="M197.34,59.41c-0.09,0-0.18-0.04-0.24-0.13c-0.5-0.74-1.05-1.13-1.63-1.16c-0.96-0.05-1.73,0.87-1.74,0.88
				c-0.1,0.12-0.29,0.14-0.41,0.04c-0.12-0.1-0.14-0.29-0.04-0.41c0.04-0.05,0.97-1.15,2.21-1.09c0.78,0.04,1.48,0.52,2.09,1.42
				c0.09,0.13,0.05,0.31-0.08,0.4C197.45,59.39,197.4,59.41,197.34,59.41z"/>
		</g>
		<g>
			<path class="st21" d="M194.29,60.85c-0.12,0-0.23-0.07-0.27-0.19c-0.06-0.15,0.02-0.32,0.17-0.37c0.01,0,0.99-0.37,1.22-1.07
				c0.1-0.32,0.03-0.67-0.22-1.05c-0.09-0.13-0.05-0.31,0.08-0.4c0.13-0.09,0.31-0.05,0.4,0.08c0.36,0.54,0.45,1.06,0.29,1.56
				c-0.32,0.96-1.52,1.41-1.57,1.43C194.36,60.85,194.32,60.85,194.29,60.85z"/>
		</g>
		<path class="st11" d="M30.9,56.82v14.87c0,1.98,1.6,3.58,3.58,3.58h11.49c1.98,0,3.58-1.6,3.58-3.58V60.4
			c0-1.98-1.6-3.58-3.58-3.58H34.75v-2.21c0,0,0.25-2.1,1.98-2.1c1.73,0,3.06,0,3.06,0v-1.33H36.1
			C36.1,51.17,30.67,50.61,30.9,56.82z"/>
		<path class="st23" d="M57.27,82.85V67.98c0-1.98-1.6-3.58-3.58-3.58H42.21c-1.98,0-3.58,1.6-3.58,3.58v11.29
			c0,1.98,1.6,3.58,3.58,3.58h11.22v2.21c0,0-0.25,2.1-1.98,2.1c-1.73,0-3.06,0-3.06,0v1.33h3.69C52.07,88.5,57.5,89.07,57.27,82.85
			z"/>
		<rect x="30.7" y="88.51" class="st23" width="13.19" height="1.01"/>
		<rect x="30.7" y="91.39" class="st23" width="17.63" height="1.01"/>
		<rect x="30.7" y="94.25" class="st23" width="17.63" height="1.01"/>
		<g>
			<g>
				<path class="st23" d="M78.31,101.42c-0.01,0-0.02,0-0.03,0c-0.29-0.06-0.48-0.34-0.42-0.63c0.52-2.6,2.98-4.32,5.6-3.93
					c1.81,0.27,3.28,1.52,3.91,3.16c1.08-1.39,2.85-2.15,4.66-1.88c1.79,0.27,3.27,1.51,3.9,3.14c1.08-1.38,2.85-2.13,4.65-1.86
					c2.62,0.39,4.47,2.76,4.2,5.4c-0.03,0.29-0.29,0.51-0.59,0.48c-0.29-0.03-0.51-0.29-0.48-0.59c0.21-2.06-1.24-3.92-3.29-4.23
					c-1.79-0.27-3.56,0.76-4.21,2.46c-0.09,0.24-0.33,0.38-0.58,0.34c-0.25-0.04-0.44-0.24-0.46-0.5c-0.12-1.81-1.51-3.31-3.3-3.58
					c-1.82-0.27-3.59,0.78-4.22,2.5c-0.09,0.24-0.33,0.38-0.58,0.35c0,0,0,0,0,0c-0.25-0.04-0.44-0.25-0.46-0.5
					c-0.1-1.83-1.49-3.36-3.3-3.63c-2.05-0.31-3.98,1.05-4.38,3.08C78.86,101.28,78.6,101.47,78.31,101.42z"/>
			</g>
			<g>
				<path class="st23" d="M99.32,108.68c-0.28-0.04-0.48-0.3-0.45-0.58c0.21-2.06-1.24-3.92-3.29-4.23
					c-1.79-0.27-3.56,0.76-4.21,2.46c-0.09,0.24-0.33,0.38-0.58,0.34c-0.25-0.04-0.44-0.24-0.46-0.5c-0.12-1.81-1.51-3.31-3.3-3.58
					c-1.82-0.27-3.59,0.78-4.22,2.5c-0.09,0.24-0.33,0.38-0.58,0.35c0,0,0,0,0,0c-0.25-0.04-0.44-0.25-0.46-0.5
					c-0.1-1.83-1.49-3.36-3.3-3.63c-2.05-0.31-3.98,1.05-4.38,3.08c-0.06,0.29-0.34,0.48-0.63,0.42c-0.29-0.06-0.48-0.34-0.42-0.63
					c0.52-2.6,2.98-4.32,5.6-3.93c1.81,0.27,3.28,1.52,3.91,3.16c1.08-1.39,2.85-2.15,4.66-1.88c1.79,0.27,3.27,1.51,3.9,3.14
					c1.08-1.38,2.85-2.13,4.65-1.86c2.62,0.39,4.47,2.76,4.2,5.4c-0.03,0.29-0.29,0.51-0.59,0.48
					C99.34,108.68,99.33,108.68,99.32,108.68z"/>
			</g>
			<g>
				<path class="st23" d="M109.42,106.33l-0.24,1.77c-0.19,0.27-0.34,0.56-0.46,0.88c-0.05,0.13-0.15,0.24-0.27,0.3h-0.01
					c-0.09,0.05-0.2,0.07-0.31,0.05c-0.11-0.02-0.2-0.06-0.28-0.14c-0.1-0.09-0.17-0.22-0.17-0.37c-0.1-1.78-1.41-3.27-3.15-3.6
					c-0.05-0.01-0.1-0.02-0.16-0.03c-0.17-0.02-0.34-0.04-0.51-0.04c-1.78-0.03-3.36,1.14-3.82,2.87c-0.02,0.08-0.04,0.16-0.06,0.25
					c-0.06,0.29-0.34,0.48-0.63,0.42c-0.01,0-0.02-0.01-0.03-0.01c-0.27-0.07-0.45-0.34-0.39-0.63c0.01-0.06,0.02-0.12,0.04-0.17
					c0.15-0.62,0.4-1.19,0.75-1.68c0.89-1.3,2.38-2.11,3.99-2.13c0.27,0,0.55,0.02,0.82,0.06c0.09,0.01,0.17,0.03,0.26,0.05
					c1.68,0.34,3.05,1.55,3.65,3.11C108.72,106.91,109.05,106.59,109.42,106.33z"/>
				<path class="st23" d="M116.92,110.53c-0.07,0.02-0.15,0.03-0.23,0.02c-0.08-0.01-0.15-0.04-0.21-0.08
					c0.08,0.01,0.16,0.02,0.24,0.03C116.8,110.5,116.86,110.51,116.92,110.53z"/>
			</g>
			<g>
				<path class="st23" d="M95.05,111.51c0,0.17-0.01,0.34-0.02,0.51c-0.03,0.27-0.26,0.47-0.52,0.48c-0.02,0.01-0.05,0-0.07,0
					c-0.02-0.01-0.03-0.01-0.05-0.01c-0.01-0.01-0.02-0.01-0.03-0.01c-0.26-0.06-0.43-0.3-0.4-0.57c0.02-0.17,0.02-0.35,0.01-0.52
					c-0.06-1.84-1.42-3.42-3.3-3.71c-1.79-0.27-3.56,0.77-4.2,2.46c-0.01,0.03-0.02,0.05-0.03,0.08c-0.11,0.19-0.33,0.3-0.55,0.27
					c-0.21-0.03-0.38-0.18-0.44-0.37c-0.01-0.04-0.02-0.08-0.02-0.12c-0.12-1.81-1.5-3.32-3.3-3.58c-1.82-0.27-3.6,0.78-4.22,2.5
					c-0.01,0.01-0.01,0.02-0.01,0.03c-0.1,0.22-0.33,0.35-0.58,0.31c-0.23-0.03-0.4-0.21-0.44-0.42c-0.01-0.02-0.01-0.05-0.01-0.08
					c-0.1-1.83-1.49-3.36-3.3-3.63c-1.37-0.2-2.68,0.33-3.53,1.31l0.23-1.61c0.81-0.54,1.79-0.84,2.81-0.81
					c0.21,0,0.42,0.02,0.64,0.05c0.15,0.02,0.28,0.05,0.42,0.09c1.61,0.38,2.91,1.56,3.48,3.07c1.01-1.31,2.64-2.05,4.33-1.91
					c0.11,0.01,0.22,0.02,0.33,0.03c0.09,0.01,0.17,0.03,0.26,0.05c1.68,0.34,3.04,1.54,3.64,3.09c1.03-1.31,2.7-2.06,4.41-1.89
					c0.08,0.01,0.16,0.02,0.24,0.03c0.07,0.01,0.13,0.02,0.2,0.04c1.84,0.35,3.26,1.67,3.79,3.36
					C94.97,110.49,95.05,110.99,95.05,111.51z"/>
			</g>
			<g>
				<path class="st23" d="M108.45,109.27c0.19,0.03,0.37,0.08,0.55,0.15l-0.15,1.09c-0.26-0.1-0.53-0.18-0.82-0.22
					c-1.82-0.27-3.59,0.78-4.22,2.5c-0.01,0.01-0.01,0.02-0.01,0.03c-0.1,0.22-0.33,0.35-0.57,0.31c-0.23-0.03-0.4-0.21-0.44-0.42
					c-0.01-0.02-0.01-0.05-0.01-0.08c-0.1-1.83-1.49-3.36-3.3-3.63c-1.88-0.28-3.64,0.82-4.24,2.56c-0.06,0.17-0.11,0.34-0.15,0.52
					c-0.05,0.24-0.26,0.42-0.49,0.44c-0.05,0-0.09,0-0.14-0.01c-0.02-0.01-0.03-0.01-0.05-0.01c-0.01-0.01-0.01-0.01-0.02-0.01
					c-0.26-0.08-0.41-0.35-0.35-0.62c0.03-0.16,0.07-0.32,0.12-0.47c0.15-0.51,0.38-0.97,0.67-1.38c0.91-1.31,2.42-2.13,4.07-2.13
					c0.03,0,0.06,0,0.09,0.01c0.21,0,0.42,0.02,0.64,0.05c0.12,0.02,0.23,0.04,0.34,0.06c0.03,0.01,0.06,0.01,0.09,0.02
					c1.61,0.39,2.91,1.56,3.48,3.07c1.01-1.3,2.64-2.05,4.33-1.91c0.11,0.01,0.23,0.02,0.34,0.03
					C108.28,109.23,108.36,109.24,108.45,109.27C108.45,109.26,108.45,109.27,108.45,109.27z"/>
				<path class="st23" d="M116.92,110.53c-0.07,0.02-0.15,0.03-0.23,0.02c-0.08-0.01-0.15-0.04-0.21-0.08
					c0.08,0.01,0.16,0.02,0.24,0.03C116.8,110.5,116.86,110.51,116.92,110.53z"/>
			</g>
			<g>
				<path class="st23" d="M98.28,117.31c-0.28-0.04-0.48-0.3-0.45-0.58c0.21-2.06-1.24-3.92-3.29-4.23
					c-1.79-0.27-3.56,0.76-4.21,2.46c-0.09,0.24-0.33,0.38-0.58,0.34c-0.25-0.04-0.44-0.24-0.46-0.5c-0.12-1.81-1.51-3.31-3.3-3.58
					c-1.82-0.27-3.59,0.78-4.22,2.5c-0.09,0.24-0.33,0.38-0.58,0.35c0,0,0,0,0,0c-0.25-0.04-0.44-0.25-0.46-0.5
					c-0.1-1.83-1.49-3.36-3.3-3.63c-2.05-0.31-3.98,1.05-4.38,3.08c-0.06,0.29-0.34,0.48-0.63,0.42c-0.29-0.06-0.48-0.34-0.42-0.63
					c0.52-2.6,2.98-4.32,5.6-3.93c1.81,0.27,3.28,1.52,3.91,3.16c1.08-1.39,2.85-2.15,4.66-1.88c1.79,0.27,3.27,1.51,3.9,3.14
					c1.08-1.38,2.85-2.13,4.65-1.86c2.62,0.39,4.47,2.76,4.2,5.4c-0.03,0.29-0.29,0.51-0.59,0.48
					C98.3,117.31,98.29,117.31,98.28,117.31z"/>
			</g>
			<g>
				<path class="st23" d="M108.21,115.08l-0.26,1.92c-0.11,0.19-0.2,0.39-0.28,0.6c-0.09,0.24-0.33,0.38-0.59,0.34
					c-0.25-0.03-0.44-0.24-0.45-0.5c-0.1-1.83-1.49-3.36-3.3-3.63c-2.06-0.31-3.98,1.05-4.38,3.08c-0.06,0.3-0.34,0.48-0.63,0.42
					c-0.01,0-0.02-0.01-0.03-0.01c-0.27-0.07-0.45-0.35-0.39-0.63c0.14-0.69,0.41-1.31,0.79-1.85c0.91-1.32,2.44-2.14,4.1-2.13
					c0.23,0,0.47,0.02,0.71,0.05c0.1,0.02,0.2,0.03,0.31,0.06c1.67,0.36,3.01,1.55,3.6,3.1
					C107.63,115.6,107.91,115.32,108.21,115.08z"/>
			</g>
		</g>
		<polygon class="st14" points="107.86,117.69 107.55,119.92 68.85,114.89 69.16,112.65 		"/>
		<path class="st11" d="M99.88,73.51L99.88,73.51c-0.05,0.64-0.62,1.11-1.26,1.03L79.25,72.1c-0.59-0.07-1.02-0.6-0.98-1.2l0,0
			c0.05-0.64,0.62-1.1,1.26-1.02l19.37,2.43C99.5,72.39,99.93,72.91,99.88,73.51z"/>
		<path class="st11" d="M99.47,77.25L99.47,77.25c-0.05,0.64-0.62,1.11-1.26,1.03l-19.37-2.43c-0.59-0.07-1.02-0.6-0.98-1.2l0,0
			c0.05-0.64,0.62-1.1,1.26-1.02l19.37,2.43C99.08,76.13,99.51,76.66,99.47,77.25z"/>
		<path class="st11" d="M99.21,81.28L99.21,81.28c-0.05,0.64-0.62,1.11-1.26,1.03l-19.37-2.43c-0.59-0.07-1.02-0.6-0.98-1.2l0,0
			c0.05-0.64,0.62-1.1,1.26-1.02l19.37,2.43C98.82,80.16,99.25,80.68,99.21,81.28z"/>
		<path class="st24" d="M197.45,62.02c0.92,0.85,1.58,2.26,1.72,3.9c0.24,2.79-1.14,5.19-3.08,5.36c-1.94,0.17-3.71-1.96-3.95-4.76
			c-0.24-2.79,1.14-5.19,3.08-5.36c0.12-0.01,0.24-0.01,0.36,0"/>
	</g>
	<g>
		<g>
			<g>
				<path class="st25" d="M391.85,224.8l-8.05-2.21l6.24,4.61c-4.17,5.5-8.51,11.44-8.91,18.45c-0.14,2.29-0.42,4.46-0.88,6.48
					l-9.51,2.07l-2.48,0.54l3.18,0.27l7.83,0.66c-0.55,1.62-1.19,3.13-1.95,4.54c-3.51,6.61-9.68,25.8-16.4,26.87c0,0,0,0-0.01,0
					c-0.21-0.41-9.83-19.33-0.94-48.26c1.18-3.84,2.74-7.42,4.56-10.71c0.06-0.11,0.12-0.22,0.18-0.33
					c10.79-19.27,30.34-28.61,33.02-18.79C399.21,214.36,395.89,219.42,391.85,224.8z"/>
				<path class="st26" d="M377.32,260.21c-5.3,17.01-9.68,25.8-16.4,26.87c0,0,0,0-0.01,0c-0.27,0-14.99-0.21-2.18-46.45
					c1.07-3.87,3.9-9.12,5.81-12.52c0.06-0.11,0.12-0.22,0.18-0.33c-0.58,4.87-0.85,12.13,1.29,18.71c0,0,1.47,3.7,4.73,7.72
					l-2.48,0.54l3.18,0.27C373.01,256.82,374.96,258.67,377.32,260.21z"/>
				<path class="st27" d="M360.81,309.29c-0.47-66.11,23-97.77,35.45-102.71"/>
			</g>
			<g>
				<path class="st25" d="M360.77,246.6l-4.43,3.99l4.53-1.37c0.34,13.87-2.16,27.06-8.89,28.27c-8.93,1.63-13.93-22.19-14.24-38.97
					l6.38,1.66l-6.32-4.18c0.03-1.04,0.09-4.07,0.17-4.99c0.88-9.87,4.2-19.93,10.15-26.19c3.7,6.13,6.87,13.19,9.11,20.18
					C359.11,230.85,360.38,238.72,360.77,246.6z"/>
				<path class="st26" d="M337.96,231.02l19.27-6.01c-2.23-6.99-5.41-14.04-9.11-20.17C342.17,211.09,338.85,221.16,337.96,231.02z"
					/>
				<path class="st27" d="M349.21,208.2c2.64,27.83,3.75,80.78,2.15,99.89"/>
				<path class="st28" d="M337.95,231.02c3.1-5.93,8.12-8.72,13.49-10.64l-1.65-9.03l3.89,8.28c8.01-2.52,16.42-3.83,20.51-11.06
					c0.97-1.71,0.2-3.84-1.22-5.22c-1.31-1.29-3.15-2.44-5.3-3.23l-9.54,2.88l5.28-3.9C353.52,197.91,340.6,204.29,337.95,231.02z"
					/>
			</g>
			<path class="st26" d="M343.2,287.13c-5.09,2.08-13.65-8.99-20.22-23.5c-0.37-0.85-0.75-1.69-1.12-2.57
				c-0.71-1.67-1.39-3.37-2.03-5.1l4.11-0.67l-5.35-2.81c-2.88-8.57-4.77-17.46-4.76-25.05l19.69,3.94
				c4.68,7.68,8.5,18.36,10.77,28.34l-2.02,5.83l2.84-1.95C347.34,275.44,347.14,285.52,343.2,287.13z"/>
			<path class="st27" d="M319.65,231.83c14.45,30.27,28.89,63.87,27.72,78.17"/>
			<path class="st28" d="M333.52,231.37c0,0-4.27-0.77-8.72,1.87l-6.88-3.77l5.32,4.86c-1.24,0.98-2.46,2.26-3.58,3.95
				c-0.13,0.19-0.26,0.37-0.38,0.56c-1.61-1.22-3.73-2.74-3.94-2.88l2.47,4.9c-7.87,10-18.1,12.19-15.67,2.47
				c0.5-1.99,0.96-4.28,1.75-6.85l4.84-3.37l-3.98,0.66c0.28-0.81,0.38-1.02,0.65-1.47c2.35-3.91,6.77-6.08,11.33-5.87
				C322.45,226.71,330.75,227.73,333.52,231.37z"/>
			<path class="st29" d="M359.76,250.29c0.07,0.87,0.12,1.74,0.16,2.62"/>
		</g>
		<path class="st30" d="M366.92,301.43h-24.38l-2.45,38.12c-0.3,4.6,3.35,8.49,7.96,8.49h13.56c4.62,0,8.28-3.92,7.96-8.53
			L366.92,301.43z"/>
		<rect x="338.86" y="298.14" class="st30" width="31.97" height="6.58"/>
		<g>
			<line class="st31" x1="342.11" y1="304.72" x2="358.71" y2="304.72"/>
			<line class="st31" x1="360.18" y1="304.72" x2="362.9" y2="304.72"/>
		</g>
	</g>
	<path class="st17" d="M303.65,362.42l-31.02,14.37h-22.46v-3.01c0-0.95,0.77-1.72,1.72-1.72h1.55c0,0-3.36-3-0.36-4.73
		c3-1.72,21.37-8.46,22.38-15.37c0,0-9.01-14.01-12.92-18.74c-3.91-4.73-29.2-35.57-29.2-35.57l-19.1-23.56
		c0,0-10.65-12.01-13.28-30.47l-2.38-17.46l33.41,5.14c0,0,5.65,21.41,6.34,24.14c0.69,2.74,5.31,10.62,8.39,14.39
		c3.08,3.77,17.98,28.43,21.23,34.42c3.25,5.99,18.32,34.77,19.01,35.63c0.69,0.85,4.05,4.99,4.6,5.17
		c0.55,0.18,9.19,5.73,7.46,13.28l0.79-0.32c1.06-0.43,2.27,0.11,2.66,1.18L303.65,362.42z"/>
	<path class="st32" d="M268.65,360.8l-1.27,0.57l1.64,10.41l-10.94,0.19l-0.8-7.94c13.6-4.25,16.45-13.53,16.45-13.53l12.18,14.2
		l-9.96,4.86L268.65,360.8z"/>
	<path class="st17" d="M198.58,235.05c0,0-8.08,13.15-9.87,16.71c-1.78,3.57-8.63,15.07-8.63,16.44c0,1.37-5.62,24.94-8.91,32.34
		c-3.29,7.4-24.39,53.57-24.39,53.57s-0.71,2.65-0.71,4.66s1.49,9.64-3.07,11.66c0,0,0.01,0.01,0.02,0.01l0.01,0.01
		c0.2,0.1,1.9,1.03,1.82,2.27c-0.09,1.31-0.88,3.59-0.88,3.59l-54.41-10.25c0,0,0.35-5.26,2.89-4.73c0,0,1.14-3.94,4.64-4.12
		c3.51-0.17,30.84-2.98,32.59-7.1c1.75-4.12,8.24-23.39,9.64-31.01c1.41-7.63,9.82-40.3,9.82-40.3s12.35-46.7,13.93-47.84
		l6.66-14.28L198.58,235.05z"/>
	<path class="st33" d="M144.85,372.71c-0.09,1.31-0.88,3.59-0.88,3.59l-54.41-10.25c0,0,0.35-5.26,2.89-4.73l50.12,9.04l0.45,0.08
		l0.01,0.01C143.23,370.55,144.93,371.47,144.85,372.71z"/>
	<path class="st32" d="M103.52,355.45v7.87l10.61,1.91l0.32-9.03l3.88-0.5l0.35,9.93l11.07,2.43l-0.64-18.55
		C129.12,349.5,119.34,355.65,103.52,355.45z"/>
	<path class="st34" d="M264.2,219.92l-5.7,5.27c-0.21,0.2-0.45,0.33-0.71,0.41c-0.59,0.17-1.25,0.03-1.74-0.41l-1.07-1
		c-4.34,4.9-10.9,6.55-10.9,6.55l0.35,0.53c0.68,1.03,0.24,2.43-0.91,2.89l-8.38,3.34c-0.86,0.34-1.84,0.03-2.35-0.74l-1.1-1.67
		l-14.53,1.58l0.26,1.31c0.24,1.17-0.63,2.28-1.83,2.32l-8.61,0.32c-1.06,0.04-1.95-0.77-2.02-1.82l-0.12-1.89l-5.04-0.39
		l-6.09-0.48l-0.75,2.53c-0.25,0.85-1.09,1.39-1.97,1.26l-8.87-1.34c-1.11-0.17-1.79-1.31-1.41-2.37l0.77-2.14l-7.89-2.21
		l-1.61,3.07c-0.51,0.98-1.7,1.38-2.7,0.92l-7.99-3.68c-1.11-0.51-1.54-1.86-0.93-2.92l1.03-1.78l-7-3.07l-1.56,1.82
		c-0.6,0.7-1.64,0.82-2.39,0.28l-3.61-2.6c-0.99-0.71-0.98-2.18,0.02-2.89c21.12-14.97,31.2-41.25,31.2-41.25h58.4
		c1.31,12.59,22.02,32.36,27.74,37.6C264.97,218,264.97,219.21,264.2,219.92z"/>
	<path class="st33" d="M303.65,362.42l-31.02,14.37h-22.46v-3.08c0-0.91,0.74-1.64,1.64-1.64h1.63l15.59-0.27l6.93-2.22l23.05-11.24
		l1.07-0.43c0.91-0.36,1.94,0.09,2.28,1.02L303.65,362.42z"/>
	<path class="st34" d="M264.2,219.92l-5.7,5.27c-0.21,0.2-0.45,0.33-0.71,0.41c-0.59,0.17-1.25,0.03-1.74-0.41l-1.07-1
		c-4.34,4.9-10.9,6.55-10.9,6.55l0.35,0.53c0.68,1.03,0.24,2.43-0.91,2.89l-8.38,3.34c-0.86,0.34-1.84,0.03-2.35-0.74l-1.1-1.67
		l-14.53,1.58l0.26,1.31c0.24,1.17-0.63,2.28-1.83,2.32l-8.61,0.32c-1.06,0.04-1.95-0.77-2.02-1.82l-0.12-1.89l-5.04-0.39
		c-1.19-6.88-3.55-24.88,1.54-38.13c2.9-7.55,4.96-13.94,6.34-18.69h28.74c1.31,12.59,22.02,32.36,27.74,37.6
		C264.97,218,264.97,219.21,264.2,219.92z"/>
	<polygon class="st17" points="226.9,156.81 224.98,156.81 223.87,152.4 225.89,152.22 	"/>
	<path class="st16" d="M236.73,177.3c-8.81,4.66-33.59,3.67-45.85,4.01c-6.37,0.17-11.3-1.65-15.14-1.86l0.24-1.78
		c-0.03-0.03-0.03-0.07,0.01-0.11v-0.01c0.01,0,0.01,0,0.01,0c1.81-1.68,0-20.74,0-20.74l47.88-4.41l1.11,4.41h1.92L236.73,177.3z"
		/>
	<polygon class="st35" points="219.82,136.35 214.61,122.56 219.22,169.7 210.81,180.65 227.55,167.79 	"/>
	<path class="st17" d="M193.75,193.89c-4.7,2.16-12.33,7.57-13.95,7.72s-1.5,2.15,0.61,2.52c2.11,0.38,9.44-3.26,9.44-3.26l2.6-4.44
		"/>
	<path class="st36" d="M154.41,224.32c0,0,23.76-24.13,27.34-43.67"/>
	<path class="st36" d="M161.41,227.39c0,0,23.17-30.39,25.8-46.18"/>
	<path class="st36" d="M173.61,231.77c0,0,21.75-42.72,23.18-50.45"/>
	<line class="st36" x1="181.5" y1="233.98" x2="203.76" y2="181.32"/>
	<line class="st36" x1="193.74" y1="236.03" x2="210.81" y2="180.65"/>
	<line class="st36" x1="204.87" y1="236.91" x2="214.5" y2="181.32"/>
	<line class="st36" x1="217.18" y1="236.67" x2="220.94" y2="180.35"/>
	<line class="st36" x1="231.7" y1="235.09" x2="225.38" y2="181.2"/>
	<path class="st36" d="M244.09,230.74c0,0-15.62-47.05-14.78-49.54"/>
	<path class="st36" d="M254.99,224.19c0,0-21.94-37.29-22.46-43.84"/>
	<path class="st17" d="M245.23,156.81c0,0,4.21,18.73,2.59,21.49c-2.94,4.99-44.06,21.54-44.06,21.54s-5.81,11.61-8.1,13.9
		c-6.76,6.76-18.9,3.98-13.51-5.64c5.39-9.61,13.51-15.81,13.51-15.81l31.89-24.49l-2.58-10.98H245.23z"/>
	<g>
		<path class="st20" d="M182.04,215.24c-0.06,0-0.13-0.02-0.18-0.06c-0.12-0.1-0.14-0.28-0.04-0.41l8.13-10.13
			c0.1-0.13,0.28-0.14,0.41-0.04c0.12,0.1,0.14,0.28,0.04,0.41l-8.13,10.13C182.21,215.2,182.12,215.24,182.04,215.24z"/>
	</g>
	<g>
		<path class="st20" d="M183.96,216.86c-0.07,0-0.14-0.03-0.2-0.08c-0.12-0.11-0.12-0.29-0.01-0.41l9.71-10.13
			c0.11-0.12,0.29-0.12,0.41-0.01c0.12,0.11,0.12,0.29,0.01,0.41l-9.71,10.13C184.12,216.83,184.04,216.86,183.96,216.86z"/>
	</g>
	<g>
		<path class="st20" d="M187.35,217.33c-0.08,0-0.16-0.03-0.22-0.1c-0.11-0.12-0.09-0.3,0.03-0.41l7.82-6.84
			c0.12-0.1,0.3-0.09,0.41,0.03c0.11,0.12,0.09,0.3-0.03,0.41l-7.82,6.84C187.48,217.31,187.42,217.33,187.35,217.33z"/>
	</g>
</g>
</svg>
