<?xml version="1.0" encoding="utf-8"?>
<!-- Generator: Adobe Illustrator 24.2.1, SVG Export Plug-In . SVG Version: 6.00 Build 0)  -->
<svg version="1.1" xmlns="http://www.w3.org/2000/svg" xmlns:xlink="http://www.w3.org/1999/xlink" x="0px" y="0px"
	 viewBox="0 0 772.3 588.1" style="enable-background:new 0 0 772.3 588.1;" xml:space="preserve">
<style type="text/css">
	.st0{fill:#A6D2FF;}
	.st1{fill:#D3BEFF;}
	.st2{fill:#FECE26;}
	.st3{fill:#E8F4FF;}
	.st4{fill:#ADD3FF;}
	.st5{fill:#D1DAE1;}
	.st6{fill:#FFD66D;}
	.st7{fill:#A5D5FF;}
	.st8{fill:none;stroke:#000000;stroke-width:0.9924;stroke-linecap:round;stroke-miterlimit:10;}
	.st9{fill:#FC3935;}
	.st10{fill:#16153D;}
	.st11{fill:#FC7E56;}
	.st12{fill:#BC5333;}
	.st13{fill:#15173D;}
	.st14{fill:#FF454A;}
	.st15{fill:none;stroke:#000000;stroke-linecap:round;stroke-miterlimit:10;}
	.st16{fill:#252A6C;}
	.st17{fill:#FC4349;}
	.st18{fill:#14163C;}
	.st19{fill:#292C71;}
	.st20{fill:#2B2B71;}
	.st21{fill:none;stroke:#FFFFFF;stroke-linecap:round;stroke-miterlimit:10;}
	.st22{fill:#1155C0;}
	.st23{fill:#1470FF;}
	.st24{fill:#3641C1;}
	.st25{fill:#EC6F53;}
	.st26{fill:#322F7E;}
	.st27{fill:#D2BDFE;}
	.st28{fill:none;stroke:#FFFFFF;stroke-width:2;stroke-linecap:round;stroke-miterlimit:10;}
	.st29{fill:#F74747;}
	.st30{fill:none;stroke:#000000;stroke-width:1.0081;stroke-linecap:round;stroke-miterlimit:10;}
	.st31{fill:#282A74;}
	.st32{fill:#AACBF8;}
	.st33{fill:#1F215E;}
	.st34{fill:#FFFFFF;}
	.st35{fill:#F88254;}
	.st36{fill:#FFFDFF;}
	.st37{fill:none;stroke:#000000;stroke-width:2;stroke-linecap:round;stroke-miterlimit:10;}
	.st38{fill:#1D1441;}
	.st39{fill:none;stroke:#000000;stroke-width:0.9924;stroke-linecap:round;stroke-linejoin:bevel;stroke-miterlimit:10;}
	.st40{fill:#A3D2FE;}
	.st41{fill:#FF7D59;}
	.st42{fill:#FDCD25;}
	.st43{fill:url(#SVGID_1_);}
</style>
<g id="Layer_62">
	<g>
		<circle class="st0" cx="670.7" cy="478.9" r="57.2"/>
	</g>
	<g>
		<circle class="st1" cx="637.3" cy="389" r="9.6"/>
	</g>
</g>
<g id="Layer_61">
	<g>
		<ellipse class="st2" cx="172.7" cy="422.2" rx="94.6" ry="93.6"/>
	</g>
</g>
<g id="Layer_64">
	<g>
		<path class="st3" d="M510.8,516v36.5h-183c-10.1,0-18.3-8.3-18.3-18.6l0,0c0-10.3,8.2-18.6,18.4-18.6
			C377.7,515.5,511.7,516,510.8,516z"/>
	</g>
</g>
<g id="Layer_57">
	<g>
		<path class="st4" d="M513.2,555.5H328.5c-11.6,0-21.1-9.4-21.1-21.1s9.4-21.1,21.1-21.1h185.1c1.1,0,2,0.9,2,2s-0.9,2-2,2H328.5
			c-9.4,0-17.1,7.7-17.1,17.1s7.7,17.1,17.1,17.1h184.7c1.1,0,2,0.9,2,2S514.3,555.5,513.2,555.5z"/>
	</g>
</g>
<g id="Layer_55">
	<g>
		<path class="st3" d="M733.8,516v36.5h-183c-10.1,0-18.3-8.3-18.3-18.6l0,0c0-10.3,8.2-18.6,18.4-18.6
			C600.7,515.5,734.7,516,733.8,516z"/>
	</g>
</g>
<g id="Layer_56">
	<g>
		<polygon class="st5" points="652.5,525.6 733.2,524.1 733.2,526.4 		"/>
	</g>
	<g>
		<polygon class="st5" points="686.9,534.4 733.4,533.1 733.4,536.1 		"/>
	</g>
	<g>
		<polygon class="st5" points="429.5,525.6 510.2,524.1 510.2,526.4 		"/>
	</g>
	<g>
		<polygon class="st5" points="463.9,534.4 510.4,533.1 510.4,536.1 		"/>
	</g>
</g>
<g id="Layer_54">
	<g>
		<path class="st6" d="M736.2,555.5H551.5c-11.6,0-21.1-9.4-21.1-21.1s9.4-21.1,21.1-21.1h185.1c1.1,0,2,0.9,2,2s-0.9,2-2,2H551.5
			c-9.4,0-17.1,7.7-17.1,17.1s7.7,17.1,17.1,17.1h184.7c1.1,0,2,0.9,2,2S737.3,555.5,736.2,555.5z"/>
	</g>
</g>
<g id="Layer_49">
	<g>
		<path class="st7" d="M108.3,344.4c-0.6,0-1-0.4-1-1v-64.3h62.3v-28.5H202c0.6,0,1,0.4,1,1s-0.4,1-1,1h-30.3v28.5h-62.3v62.3
			C109.3,343.9,108.8,344.4,108.3,344.4z"/>
	</g>
</g>
<g id="Layer_50">
	<g>
		<polygon class="st7" points="200.4,246.2 200.4,257.2 211.4,252.8 		"/>
	</g>
</g>
<g id="Layer_48">
	<path class="st8" d="M304.9,421.8v46.6h-218c-12.7,0-22.9-10.4-22.9-23.3v0c0-12.9,10.3-23.3,22.9-23.3H304.9"/>
</g>
<g id="Layer_66">
	<g>
		<path class="st3" d="M88.2,468.7h210c12.8,0,23.2-10.4,23.2-23.2v0c0-12.8-10.4-23.2-23.2-23.2h-210c-12.8,0-23.2,10.4-23.2,23.2
			v0C65,458.3,75.4,468.7,88.2,468.7z"/>
	</g>
</g>
<g id="Layer_36">
	<g>
		<path class="st9" d="M308,469.8H87.5c-14.1,0-25.5-11.5-25.5-25.5s11.5-25.5,25.5-25.5h221.1v5H87.5c-11.3,0-20.5,9.2-20.5,20.5
			s9.2,20.5,20.5,20.5H308V469.8z"/>
	</g>
</g>
<g id="Layer_60">
	<g>
		<rect x="120" y="470.1" class="st3" width="142.5" height="32.3"/>
	</g>
</g>
<g id="Layer_65">
	<g>
		<path class="st3" d="M41.3,502.4v47.7H262c12.9,0,23.4-10.5,23.4-23.4l0,0c0-12.8-10.4-23.3-23.2-23.4
			C201.2,503.1,41.1,502.2,41.3,502.4z"/>
	</g>
</g>
<g id="Layer_35">
	<g>
		<path class="st6" d="M261.9,552.8H38c-1.1,0-2-0.9-2-2s0.9-2,2-2h223.9c12.2,0,22.1-9.9,22.1-22.1s-9.9-22.1-22.1-22.1H38
			c-1.1,0-2-0.9-2-2s0.9-2,2-2h223.9c14.4,0,26.1,11.7,26.1,26.1C288,541.1,276.3,552.8,261.9,552.8z"/>
	</g>
</g>
<g id="Layer_58">
	<g>
		<polygon class="st5" points="41.1,511.5 131.4,512.8 41.3,516 		"/>
	</g>
	<g>
		<polygon class="st5" points="41.3,536.2 160.9,537.9 41.3,539.7 		"/>
	</g>
</g>
<g id="Layer_19">
	<g>
		<path class="st3" d="M299.2,509.8v-63.4h311.9c18,0,32.7,14.4,32.7,32.1v0c0,17.8-14.6,32.2-32.7,32.1
			C525.1,510.7,299.2,510.6,299.2,509.8z"/>
	</g>
</g>
<g id="Layer_59">
	<g>
		<polygon class="st5" points="469.6,459.3 299.1,457.4 299.1,463.3 		"/>
	</g>
	<g>
		<polygon class="st5" points="451.3,492.8 299.1,489.7 299.1,495.9 		"/>
	</g>
</g>
<g id="Layer_37">
	<g>
		<path class="st10" d="M139.1,352.5c-8.1,8.6-1.4,17.5-1.4,17.5s-6.8,6.3-9,6.3c-2.1,0-4.7,7,0.5,9.8c5.2,2.9-7.2,2.5-5,8.1
			s10.2,7.7,17.2,5.9c7-1.8,28.1-6.1,30.4-5.7s12.5,0.9,13.8-6.1s-1.4-5.7-0.3-7.6c1.1-1.9,0.5-10.4-4.3-10.9
			c-4.8-0.5,1.2-8.8-1.6-10.4c-2.8-1.6-6.7-3.8-6.7-6.7c0-2.8-1.1-17.8-10.4-12.3c-9.3,5.6-12,7.2-14.9,7.8
			C144.6,348.9,139.1,352.5,139.1,352.5z"/>
	</g>
</g>
<g id="Layer_38">
	<g>
		<path class="st11" d="M150.3,351.4c0,0,2.4,2,2.4,3.3s-5,2.8-4.2,5.2c0.7,2.4,6.2,5.7,2.2,12.6c0,0-5.7-5-8.3-0.9
			c-2.6,4.1,2.2,10.4,7.3,5.7c0,0,4.3,5.2,3.2,9.2c-1.1,4-16.6,16.8-18.6,18.6c-2,1.7,3.3,10.4,11.8,11.6c8.4,1.2,32.7,2,35.5-9.3
			c0,0-17.1-13.9-17.7-16.2c-0.6-2.4-0.4-5.8,0.6-6.4s9.4-0.5,9.4-5.9s-2-14.7-1.9-16.6c0.1-1.9-2.1-10.6-6.2-10.3s-5.6,2.1-7.2,2.1
			c-1.6,0-4.4,2-5.7-1.1C153,353.1,151.1,351.2,150.3,351.4z"/>
	</g>
</g>
<g id="Layer_45">
	<g>
		<path d="M153.9,367.1C153.9,367.1,153.9,367.1,153.9,367.1c-0.4-0.1-0.5-0.3-0.5-0.6c0-0.1,0.5-2.6,2.5-3.9
			c1.2-0.8,2.6-0.9,4.3-0.5c0.3,0.1,0.4,0.3,0.4,0.6c-0.1,0.3-0.3,0.4-0.6,0.4c-1.4-0.4-2.6-0.2-3.5,0.4c-1.6,1.1-2,3.2-2,3.3
			C154.4,366.9,154.2,367.1,153.9,367.1z"/>
	</g>
	<g>
		<path d="M170.4,361.4c-0.2,0-0.3-0.1-0.4-0.2c-0.6-0.8-1.3-1.3-2-1.4c-1.6-0.2-3,1.1-3,1.2c-0.2,0.2-0.5,0.2-0.7,0
			c-0.2-0.2-0.2-0.5,0-0.7c0.1-0.1,1.8-1.6,3.8-1.4c1.1,0.1,2,0.7,2.7,1.8c0.2,0.2,0.1,0.5-0.1,0.7
			C170.5,361.4,170.5,361.4,170.4,361.4z"/>
	</g>
	<g>
		<path class="st12" d="M167.5,374.4c-0.2,0-0.3-0.1-0.4-0.2c-0.1-0.2-0.1-0.5,0.1-0.7c2.6-1.7,2.5-2.3,2.5-2.3l0,0
			c0,0-0.1-0.2-0.9-0.3c-3.3-0.4-4.7-7.2-4.8-8c0-0.3,0.1-0.5,0.4-0.6c0.3,0,0.5,0.1,0.6,0.4c0.3,1.9,1.7,6.9,3.9,7.1
			c0.4,0,1.6,0.2,1.8,1c0.2,0.9-0.7,1.9-3,3.3C167.7,374.4,167.6,374.4,167.5,374.4z"/>
	</g>
	<g>
		<path class="st12" d="M165.7,378.9c-1.7,0-2.9-0.6-2.9-0.6c-0.2-0.1-0.3-0.4-0.2-0.7c0.1-0.2,0.4-0.3,0.7-0.2
			c0.2,0.1,3.8,1.8,7.2-1.6c0.2-0.2,0.5-0.2,0.7,0c0.2,0.2,0.2,0.5,0,0.7C169.2,378.4,167.2,378.9,165.7,378.9z"/>
	</g>
	<g>
		<ellipse class="st13" cx="160.6" cy="368.4" rx="1.4" ry="1.5"/>
	</g>
	<g>
		<ellipse class="st13" cx="168.8" cy="365.5" rx="1.4" ry="1.5"/>
	</g>
</g>
<g id="Layer_39">
	<g>
		<path class="st0" d="M134.8,404.3c0,0-37.2,55.2-26.8,75l104-0.7c0,0-15.7-59.2-30.7-71.7C181.3,406.8,158.6,425.1,134.8,404.3z"
			/>
	</g>
</g>
<g id="Layer_41">
	<g>
		<path class="st13" d="M172.6,428.6l-22,50.3l68,0.1l20.8-47.3c1.1-2.6-0.8-5.5-3.6-5.5h-59.7C174.7,426.2,173.3,427.1,172.6,428.6
			z"/>
	</g>
</g>
<g id="Layer_46">
	<g>
		<path class="st11" d="M217.6,452.3c0,0-4.4,1.3-1.7,4.4l10,0.2c0,0-11.9,0.6-11.9,1.7s0.2,3.3,2.4,3.3c2.2,0,8-0.3,8-0.3l-8.4,2
			c0,0-1.6,2,1,2.2c2.7,0.2,6.1,0,6.1,0l-6.1,1.7c0,0,0,2.8,2.1,2.7c2.1-0.1,8.3-1,8.3-1s2.8-1,2.3-3.9c0,0,1.7-2,1.3-3.5
			c0,0,1.8-2,1.2-4c0,0,1.8-4.7-1.2-5.3C228,451.8,217.6,452.3,217.6,452.3z"/>
	</g>
</g>
<g id="Layer_43">
</g>
<g id="Layer_44">
	<g>
		<path class="st14" d="M206.8,479c0,0,23.6,9.9,23.3,26.3c-0.3,16.4-15.4,14.8-31.2,16.1s-44,3.1-44,3.1l-25.6-45.6L206.8,479z"/>
	</g>
</g>
<g id="Layer_47">
	<path class="st15" d="M151.6,501.3c0,0,33-12.1,48.5-11.2"/>
	<path class="st15" d="M191.3,485.2c0,0-5,3.6-4.5,6.2"/>
</g>
<g id="Layer_70">
	<g>
		<path class="st16" d="M180.6,559.2L180.6,559.2c-3.8,2.8-9.1,2.1-12.1-1.5L154,537.7l8.7-8.5l19.2,16.7
			C185.5,549.9,184.9,556,180.6,559.2z"/>
	</g>
</g>
<g id="Layer_42">
	<g>
		<path class="st17" d="M87,453.6c-15.6,8.7,1,33.3,11.3,43.5c10.2,10.2,56.8,49.2,56.8,49.2l17.2-15.9l-50.2-65
			C122.1,465.4,105.4,443.4,87,453.6z"/>
	</g>
</g>
<g id="Layer_68">
	<line class="st15" x1="132.8" y1="479.5" x2="166.4" y2="523.4"/>
</g>
<g id="Layer_40">
	<polyline class="st15" points="139.2,429.9 134.6,455.9 157.9,461.2 	"/>
	<line class="st15" x1="142.5" y1="435.2" x2="137.3" y2="440.9"/>
</g>
<g id="Layer_18">
	<g>
		<path class="st9" d="M611.7,513.1h-310v-5h310c16.6,0,30.1-13.5,30.1-30.1v-0.5c0-16.6-13.5-30.1-30.1-30.1H300.1v-5h311.6
			c19.3,0,35.1,15.7,35.1,35.1v0.5C646.8,497.4,631,513.1,611.7,513.1z"/>
	</g>
</g>
<g id="Layer_73">
	<rect x="368.8" y="399.6" class="st18" width="7" height="107.1"/>
</g>
<g id="Layer_29">
	<g>
		<path class="st19" d="M360.3,486.4c0,0-5.5,13.1-1.8,21.9l48.8-0.2c0,0,0-7.7-4.2-7.7c-4.3,0-24.8-13.7-24.8-13.7L360.3,486.4z"/>
	</g>
	<g>
		<path class="st20" d="M297.6,486.2c0,0-5.9,12.3-1.9,18.9l3.2,2.9l46.7-0.1c0,0-2.1-7.1-5.6-7.4c-3.5-0.2-21.8-6.6-23.4-13.2
			C314.9,480.8,297.6,486.2,297.6,486.2z"/>
	</g>
</g>
<g id="Layer_69">
	<path class="st21" d="M358.7,501.6c0,0,6.6-1.5,7.8,2.9h33.8c0,0,1.7-3.1,2.7-3.1"/>
	<path class="st21" d="M295.7,501.9c0,0,5.3-0.8,6.7,2.7h35.1c0,0,0.8-2.6,2.6-2.7"/>
	<path class="st21" d="M381.1,496.2c0,0,4.5-3.9,6.7-3.2"/>
	<path class="st21" d="M384.4,499.4c0,0,3.7-4.7,7.1-4.1"/>
	<path class="st21" d="M389.6,500.2c0,0,2.4-4.1,6.1-2.4"/>
	<path class="st21" d="M315.3,496.4c0,0,4.3-3.9,8.1-2"/>
	<path class="st21" d="M318.2,498.8c0,0,4.7-4.1,9.1-2.4"/>
	<path class="st21" d="M323,500.4c0,0,4.8-3.4,8.5-1.9"/>
</g>
<g id="Layer_74">
	<g>
		<path class="st18" d="M423.1,400H320.5v-7.3h102.6c2,0,3.7,1.6,3.7,3.7l0,0C426.8,398.3,425.1,400,423.1,400z"/>
	</g>
</g>
<g id="Layer_28">
	<g>
		<path class="st22" d="M308.9,416.3c0,0-12.2,25-12.2,40c0,15-1.4,32.4-1.4,32.4l22.9,1.1c0,0,6.5-47.1,12-53.9
			c5.4-6.8,9.3-26.4,5.7-28S310.8,407,308.9,416.3z"/>
	</g>
</g>
<g id="Layer_27">
	<g>
		<path class="st23" d="M231.5,399.6c0,0,7.5,21.1,30.4,20.8l55.6-0.3l37.6,68.3h25.8l-37-91.5c0,0-4.3-6.4-7.8-6.7
			c-3.5-0.3-70.9-4.1-70.9-4.1L231.5,399.6z"/>
	</g>
</g>
<g id="Layer_30">
</g>
<g id="Layer_31">
	<g>
		<rect x="375.7" y="388.6" class="st24" width="41.2" height="4.2"/>
	</g>
</g>
<g id="Layer_20">
	<g>
		<path class="st13" d="M234.2,274.9c0,0-7.7,6.1-0.5,15.7c7.1,9.6,8.9,10,8.9,10l10.2-11.2c0,0,1.4-5.7-0.9-8.7l12.3-7.5
			c0,0,3.9-11.1-3.7-12.3c-7.7-1.2-7,4.3-10.5,4.6S232.8,267.1,234.2,274.9z"/>
	</g>
</g>
<g id="Layer_21">
	<g>
		<path class="st25" d="M255.7,268.8c0,0,2.3,9.8-4.4,11.7c0,0,1.7,4.3,1.7,5.7c0,1.3-0.5,3-0.5,3s-3.7-2.9-6.1-0.7
			c-1.9,1.8-2.5,4.4-0.5,6.6c2,2.1-4.5,4.9-4.5,4.9l-1.1,11.9l16.7,6.9c0,0-2.4-15.6-0.1-16c0,0,19.2,4.3,13.7-13.1
			c0,0,3.9-3.5,3.1-4.3c-0.8-0.8-5.7-1.2-6.4-2.4S264.7,269.7,255.7,268.8z"/>
	</g>
</g>
<g id="Layer_33">
	<g>
		<path class="st26" d="M341.2,392.8c0,0-1.6-3.5,3.1-5.5s14.3,0.1,14.3,0.1s1.9,2.4,1.8,5.4C360.4,392.7,341.1,392.8,341.2,392.8z"
			/>
	</g>
</g>
<g id="Layer_34">
	<g>
		<path class="st27" d="M222.3,232c4.5-3.8,7.1-8.4,7.1-13.4c0-12.5-16.3-22.7-36.5-22.7c-20.2,0-36.5,10.2-36.5,22.7
			c0,12.5,16.3,22.7,36.5,22.7c7.1,0,13.7-1.3,19.3-3.4l16,6.1L222.3,232z"/>
	</g>
</g>
<g id="Layer_72">
	<polyline class="st28" points="166.4,220.4 179.8,215 187.9,222 204,214.5 209.9,221.4 220.1,217.1 	"/>
</g>
<g id="Layer_25">
	<g>
		<path class="st25" d="M327.9,382.5c0,0,10.2-3.1,11.7-3.9s16.5-1.7,19.5,6.8c0,0-1,1.5-6.8,2.2c-5.8,0.7-9.9,1.7-11,2.7
			c-1.2,1-6.7,2.3-10.7,2.1C326.5,392.2,327.9,382.5,327.9,382.5z"/>
	</g>
</g>
<g id="Layer_26">
	<g>
		<path class="st12" d="M352.4,388.1c-0.2,0-0.3-0.1-0.4-0.3c-2-3.5-9-1.5-9.1-1.5c-0.3,0.1-0.5-0.1-0.6-0.3
			c-0.1-0.3,0.1-0.5,0.3-0.6c0.3-0.1,7.9-2.3,10.3,1.9c0.1,0.2,0.1,0.5-0.2,0.7C352.5,388.1,352.4,388.1,352.4,388.1z"/>
	</g>
	<g>
		<path class="st12" d="M356.3,386.7c-0.2,0-0.3-0.1-0.4-0.2c-4.1-5.9-11-3.8-11.3-3.7c-0.3,0.1-0.5-0.1-0.6-0.3
			c-0.1-0.3,0.1-0.5,0.3-0.6c0.1,0,7.9-2.4,12.5,4.1c0.2,0.2,0.1,0.5-0.1,0.7C356.5,386.7,356.4,386.7,356.3,386.7z"/>
	</g>
</g>
<g id="Layer_23">
	<g>
		<path class="st29" d="M242,309.1c0,0-3.3-0.1-4.3,4.1s-11.3,37.3-11.1,56.4c0.3,19.1,2.4,34.9,5.2,34.9s32.7-15.1,32.7-15.1
			s0.8,2.7,5.6,2.7s60.4,0.3,60.4,0.3v-13.1l-52-9.5l-21.5-54L242,309.1z"/>
	</g>
</g>
<g id="Layer_24">
	<line class="st30" x1="242" y1="358.2" x2="264.6" y2="389.5"/>
	<line class="st30" x1="240.5" y1="361.9" x2="246" y2="363.8"/>
	<path class="st30" d="M237.5,332c0,0,2.7-14.4,19.9-11"/>
	<polyline class="st30" points="278.4,376 278.6,369.9 273.3,373.1 	"/>
</g>
<g id="Layer_22">
	<g>
		<path d="M257.1,283.2C257.1,283.2,257.1,283.2,257.1,283.2c-0.3,0-0.5-0.3-0.5-0.5c0-0.1,0.1-2.2,1.7-3.6c0.9-0.8,2.2-1.1,3.6-0.9
			c0.3,0,0.5,0.3,0.4,0.6c0,0.3-0.3,0.5-0.6,0.4c-1.2-0.1-2.2,0.1-2.9,0.7c-1.2,1-1.4,2.8-1.4,2.8
			C257.6,283,257.3,283.2,257.1,283.2z"/>
	</g>
	<g>
		<circle class="st13" cx="261.7" cy="284.2" r="1.1"/>
	</g>
	<g>
		<path class="st12" d="M269,295.9c-3.5,0-5.3-1.4-5.4-1.5l0.6-0.8c0,0,2.3,1.8,6.9,1.1l0.2,1C270.4,295.8,269.7,295.9,269,295.9z"
			/>
	</g>
</g>
<g id="Layer_17">
	<g>
		<rect x="459.1" y="359" class="st13" width="86.9" height="84.8"/>
	</g>
	<g>
		<rect x="413.7" y="426.8" class="st31" width="178.3" height="17.1"/>
	</g>
</g>
<g id="Layer_63">
	<g>
		<circle class="st32" cx="280.3" cy="60.4" r="3.4"/>
	</g>
	<g>
		<circle class="st32" cx="280.3" cy="76.9" r="3.4"/>
	</g>
	<g>
		<circle class="st32" cx="280.5" cy="93.1" r="3.4"/>
	</g>
	<g>
		<circle class="st32" cx="280.5" cy="109.5" r="3.4"/>
	</g>
	<g>
		<circle class="st32" cx="280.5" cy="125.5" r="3.4"/>
	</g>
	<g>
		<circle class="st32" cx="280.5" cy="142" r="3.4"/>
	</g>
	<g>
		<circle class="st32" cx="296.3" cy="60.4" r="3.4"/>
	</g>
	<g>
		<circle class="st32" cx="296.3" cy="76.9" r="3.4"/>
	</g>
	<g>
		<circle class="st32" cx="296.5" cy="93.1" r="3.4"/>
	</g>
	<g>
		<circle class="st32" cx="296.5" cy="109.5" r="3.4"/>
	</g>
	<g>
		<circle class="st32" cx="296.5" cy="125.5" r="3.4"/>
	</g>
	<g>
		<circle class="st32" cx="296.5" cy="142" r="3.4"/>
	</g>
	<g>
		<circle class="st32" cx="313.3" cy="60.4" r="3.4"/>
	</g>
	<g>
		<circle class="st32" cx="313.3" cy="76.9" r="3.4"/>
	</g>
	<g>
		<circle class="st32" cx="313.5" cy="93.1" r="3.4"/>
	</g>
	<g>
		<circle class="st32" cx="313.5" cy="109.5" r="3.4"/>
	</g>
	<g>
		<circle class="st32" cx="313.5" cy="125.5" r="3.4"/>
	</g>
	<g>
		<circle class="st32" cx="313.5" cy="142" r="3.4"/>
	</g>
	<g>
		<circle class="st32" cx="328.3" cy="60.4" r="3.4"/>
	</g>
	<g>
		<circle class="st32" cx="328.3" cy="76.9" r="3.4"/>
	</g>
	<g>
		<path d="M328.5,98c-2.7,0-4.9-2.2-4.9-4.9c0-2.7,2.2-4.9,4.9-4.9s4.9,2.2,4.9,4.9C333.4,95.8,331.2,98,328.5,98z M328.5,91.2
			c-1,0-1.9,0.9-1.9,1.9s0.9,1.9,1.9,1.9s1.9-0.9,1.9-1.9S329.5,91.2,328.5,91.2z"/>
	</g>
	<g>
		<path d="M328.5,114.4c-2.7,0-4.9-2.2-4.9-4.9c0-2.7,2.2-4.9,4.9-4.9s4.9,2.2,4.9,4.9C333.4,112.2,331.2,114.4,328.5,114.4z
			 M328.5,107.6c-1,0-1.9,0.9-1.9,1.9s0.9,1.9,1.9,1.9s1.9-0.9,1.9-1.9S329.5,107.6,328.5,107.6z"/>
	</g>
	<g>
		<path d="M328.5,130.4c-2.7,0-4.9-2.2-4.9-4.9c0-2.7,2.2-4.9,4.9-4.9s4.9,2.2,4.9,4.9C333.4,128.2,331.2,130.4,328.5,130.4z
			 M328.5,123.6c-1,0-1.9,0.9-1.9,1.9s0.9,1.9,1.9,1.9s1.9-0.9,1.9-1.9S329.5,123.6,328.5,123.6z"/>
	</g>
	<g>
		<path d="M328.5,146.9c-2.7,0-4.9-2.2-4.9-4.9s2.2-4.9,4.9-4.9s4.9,2.2,4.9,4.9S331.2,146.9,328.5,146.9z M328.5,140.1
			c-1,0-1.9,0.9-1.9,1.9s0.9,1.9,1.9,1.9s1.9-0.9,1.9-1.9S329.5,140.1,328.5,140.1z"/>
	</g>
	<g>
		<circle class="st32" cx="344.3" cy="60.4" r="3.4"/>
	</g>
	<g>
		<circle class="st32" cx="344.3" cy="76.9" r="3.4"/>
	</g>
	<g>
		<path d="M344.5,98c-2.7,0-4.9-2.2-4.9-4.9c0-2.7,2.2-4.9,4.9-4.9s4.9,2.2,4.9,4.9C349.4,95.8,347.2,98,344.5,98z M344.5,91.2
			c-1,0-1.9,0.9-1.9,1.9s0.9,1.9,1.9,1.9s1.9-0.9,1.9-1.9S345.5,91.2,344.5,91.2z"/>
	</g>
	<g>
		<path d="M344.5,114.4c-2.7,0-4.9-2.2-4.9-4.9c0-2.7,2.2-4.9,4.9-4.9s4.9,2.2,4.9,4.9C349.4,112.2,347.2,114.4,344.5,114.4z
			 M344.5,107.6c-1,0-1.9,0.9-1.9,1.9s0.9,1.9,1.9,1.9s1.9-0.9,1.9-1.9S345.5,107.6,344.5,107.6z"/>
	</g>
	<g>
		<path d="M344.5,130.4c-2.7,0-4.9-2.2-4.9-4.9c0-2.7,2.2-4.9,4.9-4.9s4.9,2.2,4.9,4.9C349.4,128.2,347.2,130.4,344.5,130.4z
			 M344.5,123.6c-1,0-1.9,0.9-1.9,1.9s0.9,1.9,1.9,1.9s1.9-0.9,1.9-1.9S345.5,123.6,344.5,123.6z"/>
	</g>
	<g>
		<path d="M344.5,146.9c-2.7,0-4.9-2.2-4.9-4.9s2.2-4.9,4.9-4.9s4.9,2.2,4.9,4.9S347.2,146.9,344.5,146.9z M344.5,140.1
			c-1,0-1.9,0.9-1.9,1.9s0.9,1.9,1.9,1.9s1.9-0.9,1.9-1.9S345.5,140.1,344.5,140.1z"/>
	</g>
	<g>
		<circle class="st32" cx="360.3" cy="60.4" r="3.4"/>
	</g>
	<g>
		<circle class="st32" cx="360.3" cy="76.9" r="3.4"/>
	</g>
	<g>
		<path d="M360.5,98c-2.7,0-4.9-2.2-4.9-4.9c0-2.7,2.2-4.9,4.9-4.9s4.9,2.2,4.9,4.9C365.4,95.8,363.2,98,360.5,98z M360.5,91.2
			c-1,0-1.9,0.9-1.9,1.9s0.9,1.9,1.9,1.9s1.9-0.9,1.9-1.9S361.5,91.2,360.5,91.2z"/>
	</g>
	<g>
		<path d="M360.5,114.4c-2.7,0-4.9-2.2-4.9-4.9c0-2.7,2.2-4.9,4.9-4.9s4.9,2.2,4.9,4.9C365.4,112.2,363.2,114.4,360.5,114.4z
			 M360.5,107.6c-1,0-1.9,0.9-1.9,1.9s0.9,1.9,1.9,1.9s1.9-0.9,1.9-1.9S361.5,107.6,360.5,107.6z"/>
	</g>
	<g>
		<path d="M360.5,130.4c-2.7,0-4.9-2.2-4.9-4.9c0-2.7,2.2-4.9,4.9-4.9s4.9,2.2,4.9,4.9C365.4,128.2,363.2,130.4,360.5,130.4z
			 M360.5,123.6c-1,0-1.9,0.9-1.9,1.9s0.9,1.9,1.9,1.9s1.9-0.9,1.9-1.9S361.5,123.6,360.5,123.6z"/>
	</g>
	<g>
		<path d="M360.5,146.9c-2.7,0-4.9-2.2-4.9-4.9s2.2-4.9,4.9-4.9s4.9,2.2,4.9,4.9S363.2,146.9,360.5,146.9z M360.5,140.1
			c-1,0-1.9,0.9-1.9,1.9s0.9,1.9,1.9,1.9s1.9-0.9,1.9-1.9S361.5,140.1,360.5,140.1z"/>
	</g>
</g>
<g id="Layer_15">
	<g>
		<path class="st33" d="M672.7,359.1H332.6c-5.1,0-9.2-4.1-9.2-9.2V91.5c0-5.1,4.1-9.2,9.2-9.2h340.1c5.1,0,9.2,4.1,9.2,9.2V350
			C681.9,355,677.8,359.1,672.7,359.1z"/>
	</g>
</g>
<g id="Layer_67">
	<g>
		<polygon class="st24" points="414.6,389.3 438.3,353.9 441.5,353.9 416.9,392.8 		"/>
	</g>
</g>
<g id="Layer_16">
	<g>
		<path class="st34" d="M664.3,332.9H341.1c-4.6,0-8.3-3.7-8.3-8.3V99.8c0-4.6,3.7-8.3,8.3-8.3h323.2c4.6,0,8.3,3.7,8.3,8.3v224.8
			C672.7,329.2,668.9,332.9,664.3,332.9z"/>
	</g>
</g>
<g id="Layer_2">
	<g>
		<path class="st13" d="M530.4,94.4c0,0-19.1-18.9-3.6-31.5c0,0-6.7-20.8,5-26.3s20.3,7.6,24.8,9.3s28.4,7.9,30.3,8.1
			c1.9,0.2,8.8,7.6,7.9,20.5c0,0,5,0,1.4,13.6s-4.1,21.5-4.1,25.8s-10.3,13.6-19.6,11.2S530.4,94.4,530.4,94.4z"/>
	</g>
</g>
<g id="Layer_14">
	<g>
		<polygon class="st13" points="281.4,238.1 312.9,333.6 436,333.6 406.8,237.8 		"/>
	</g>
</g>
<g id="Layer_3">
	<g>
		<path class="st35" d="M538.5,63.2c0,0-2.4,10.3-10,10.3c0,0-0.2,18.9-1.2,25.1s-4.3,34.9,11.9,37l-5.5,22.2
			c0,0,28.2,12.2,47.5-2.6c0,0-9.6-22.4-6.4-41.8c0,0,11,6.7,13.1-6.2c2.1-12.9-13.8-9.6-14.8-4.1c0,0-6.7-6.7-0.5-19.8
			c0,0-14.3-6.4-11.9-19.1c0,0-4.3,7.9-11,7.9S538.5,63.2,538.5,63.2z"/>
	</g>
</g>
<g id="Layer_10">
	<g>
		<path d="M566.2,88.5c-0.4,0-0.8-0.3-1-0.7c-2.2-7.6-13.7-5.8-13.8-5.8c-0.6,0.1-1.1-0.3-1.1-0.8c-0.1-0.5,0.3-1.1,0.8-1.1
			c4.6-0.8,14-0.2,16.1,7.3c0.2,0.5-0.2,1.1-0.7,1.2C566.4,88.5,566.3,88.5,566.2,88.5z"/>
	</g>
	<g>
		<path d="M530.5,84.8c-0.2,0-0.4-0.1-0.6-0.2c-0.5-0.3-0.6-0.9-0.3-1.4c0-0.1,4.5-6.5,12.3-2.8c0.5,0.2,0.7,0.8,0.5,1.3
			c-0.2,0.5-0.8,0.7-1.3,0.5c-6.2-3-9.6,1.9-9.8,2.1C531.2,84.6,530.8,84.8,530.5,84.8z"/>
	</g>
	<g>
		<path class="st12" d="M543.4,108c-0.2-0.2-0.6-0.4-1-0.6c-1.8-1-4.6-2.5-4.7-4.6c-0.1-1.2,0.7-2.4,2.2-3.5
			c4.8-3.4,3.4-12.1,3.4-12.2l1.5-0.2c0.1,0.4,1.5,9.7-4,13.6c-1.1,0.8-1.6,1.5-1.6,2.2c0.1,1.4,2.5,2.6,3.9,3.4
			c0.5,0.3,0.9,0.5,1.2,0.7L543.4,108z"/>
	</g>
	<g>
		<path class="st36" d="M545.4,123.6c-5.2-1.5-10.2-11.3-10.2-11.3s13.6,3.8,22.4-0.4C566.5,107.8,550.3,125,545.4,123.6z"/>
	</g>
	<g>
		<path class="st12" d="M545.5,136.9c-2,0-4.1-0.2-6.4-0.6l0.3-1.5c25.8,4.7,32.7-20.3,33-21.3l1.5,0.4
			C573.8,114.1,567.5,136.9,545.5,136.9z"/>
	</g>
	<g>
		<ellipse class="st13" cx="555" cy="92.8" rx="2.4" ry="3"/>
	</g>
	<g>
		<ellipse class="st13" cx="537" cy="92.6" rx="2.2" ry="2.9"/>
	</g>
	<g>
		
			<rect x="574.6" y="105.1" transform="matrix(0.8785 -0.4777 0.4777 0.8785 19.8012 289.644)" class="st12" width="9.8" height="1.5"/>
	</g>
	<g>
		
			<rect x="579.3" y="105.6" transform="matrix(0.7474 -0.6644 0.6644 0.7474 74.8779 412.6149)" class="st12" width="1.5" height="4.5"/>
	</g>
	<g>
		<path class="st12" d="M545.9,130.4c-3.5,0-4.9-1.9-5-2l1.2-0.9c0.1,0.1,2.2,2.8,8.3,0.4l0.6,1.4
			C549,130.1,547.3,130.4,545.9,130.4z"/>
	</g>
</g>
<g id="Layer_12">
	<path class="st37" d="M526.6,84.1l-24.5,30.4c-2.3,2.8-0.3,7.1,3.4,7.1h15.9"/>
</g>
<g id="Layer_11">
	<g>
		<path class="st38" d="M530.6,128h-10.1c-2.8,0-5.1-2.3-5.1-5.1v0c0-2.8,2.3-5.1,5.1-5.1h10.1c2.8,0,5.1,2.3,5.1,5.1v0
			C535.8,125.7,533.5,128,530.6,128z"/>
	</g>
</g>
<g id="Layer_4">
	<g>
		<path class="st34" d="M521.8,158.7l14.3-10.5c0,0,11,18.1,43,1c0,0,2.4,8.4,9.3,10.5l3.1,8.1l-43,21.7l-27.5-26.3L521.8,158.7z"/>
	</g>
</g>
<g id="Layer_51">
	<line class="st8" x1="621.5" y1="112.6" x2="629.9" y2="112.6"/>
	<line class="st8" x1="636.7" y1="104.6" x2="645.4" y2="113.3"/>
	<line class="st8" x1="645.8" y1="104.3" x2="636.4" y2="113.6"/>
	<rect x="651.5" y="103.7" class="st39" width="10" height="10.3"/>
</g>
<g id="Layer_52">
	<g>
		<rect x="692.1" y="56.7" class="st2" width="41.3" height="44.2"/>
	</g>
</g>
<g id="Layer_53">
	<g>
		<g>
			<polygon class="st40" points="715.2,84.7 725.1,108.3 729.6,102.1 741.6,113.6 747.8,107 735,95.5 740.8,89.7 			"/>
		</g>
		<g>
			<path class="st34" d="M741.7,115.1l-11.9-11.5l-4.9,6.7l-11.3-26.9l29.3,5.7l-6.4,6.4l12.8,11.5L741.7,115.1z M729.5,100.6
				l12.1,11.7l4.8-5.1l-12.8-11.6l5.2-5.2l-21.9-4.2l8.5,20.2L729.5,100.6z"/>
		</g>
	</g>
</g>
<g id="Layer_5">
	<g>
		<path class="st23" d="M524.7,157.7c0,0-18,4.8-21,6.4c-2.1,1.2-22.4,16.4-24.1,42.3c-1.9,27.7-5.7,45.4-5.7,45.4l-25.3-56.1
			l-32,6.9L454.7,333h197.5c0,0-10-146.4-42.3-160.5c0,0-17.9-13.4-21.7-13.6c0,0-9.1,17.9-28.9,17.7S526.6,172.5,524.7,157.7z"/>
	</g>
</g>
<g id="Layer_6">
	<path class="st37" d="M487.5,302.2l104.1-18.9c0,0,9.1,0,12.3,4.9"/>
	<path class="st37" d="M606.9,173c0,0-21.4,14.4-19.8,47.3s5.3,62.7,5.3,62.7"/>
	<line class="st37" x1="494.9" y1="208.4" x2="486.3" y2="299.3"/>
</g>
<g id="Layer_7">
	<g>
		<path class="st41" d="M349.4,145.5L349.4,145.5c0.2,2,1.7,3.5,3.7,3.8l23.5,2.5c0,0-1.5,0.9-1.7,3.2c-0.2,2.3-0.5,6,1.8,7.2
			c0,0-4.6,5.3,0.1,8.4c0,0-1,8.4,4.6,10.1c5.6,1.7,24.8,0.6,24.8,0.6s3.5-0.1,4.9,3.4c1.3,3.5,8.4,18.7,8.4,18.7l27.9-6.2
			l-15.2-37.4c0,0-7.6-21.6-18.3-21.9c-8.9-0.2-47.8,2.3-60.7,3.1C351,141.3,349.2,143.3,349.4,145.5z"/>
	</g>
	<g>
		<path class="st41" d="M395.8,332.7c0,0,19.6-28.7,55.7-28.2l35.8-1.4l5.3,29.1c0,0-34.6,1.7-40.4-3.3c0,0-18.5-1.4-21.1,4.1
			C431.2,332.9,395.8,331.6,395.8,332.7z"/>
	</g>
</g>
<g id="Layer_13">
	<g>
		<path class="st12" d="M407.3,332.6l-1.1-1c0.7-0.7,17.4-17.9,31.4-18.6l0.1,1.5C424.3,315.1,407.5,332.4,407.3,332.6z"/>
	</g>
	<g>
		<path class="st12" d="M420.4,332l-1-1.2c0.5-0.4,13.5-11,21.9-10.7l0,1.5c-0.1,0-0.2,0-0.2,0C433.2,321.6,420.6,331.9,420.4,332z"
			/>
	</g>
</g>
<g id="Layer_9">
	<g>
		<path class="st12" d="M395.9,163.6c-6.4,0-16.6-1-17.1-1l0.1-1.5c0.1,0,13.6,1.3,19.3,1c1-0.1,1.7-0.4,2-1c1-1.7-0.1-5.2-0.8-6.8
			l-19-1.9l0.2-1.5l19.9,2l0.2,0.4c0.3,0.6,2.6,5.7,0.9,8.6c-0.6,1.1-1.7,1.7-3.2,1.8C397.6,163.6,396.8,163.6,395.9,163.6z"/>
	</g>
	<g>
		<path class="st12" d="M390.5,172c-4.9,0-10.3-0.2-12-0.3l0.1-1.5c6.8,0.3,18.1,0.6,19.5-0.2c1-0.5,0.4-4.3-0.5-6.9l1.4-0.5
			c0.4,1.2,2.4,7.4-0.3,8.7C397.8,171.8,394.3,172,390.5,172z"/>
	</g>
	<g>
		<path class="st12" d="M387,180.4c-1,0-1.6-0.1-1.7-0.1l0.1-1.5c0.1,0,7.6,0.6,10.7-2.6c1.1-1.1,1.5-2.5,1.3-4.4l1.5-0.2
			c0.3,2.3-0.3,4.1-1.7,5.6C394.6,180,389.6,180.4,387,180.4z"/>
	</g>
</g>
<g id="Layer_8">
	<g>
		<g>
			<path class="st41" d="M402.2,139.5c0,0-7.3,7.2-9.8,9c-2.4,1.8-7,6.7-2.6,11c4.4,4.3,11.7-5.4,13.8-6.2c2.1-0.9,8.6-1.6,10.3,0.9
				"/>
		</g>
		<g>
			<path class="st12" d="M392.5,161.4c-1.1,0-2.1-0.4-3.1-1.3c-1.5-1.4-2.2-3.1-2.1-4.9c0.2-3.7,4-6.7,4.7-7.3
				c2.4-1.8,9.6-8.9,9.7-9l1.1,1.1c-0.3,0.3-7.4,7.3-9.9,9.1c-1.8,1.3-4,3.8-4.1,6.2c-0.1,1.3,0.5,2.6,1.6,3.7
				c2.5,2.5,6.4-0.7,10.2-4.2c1.2-1.1,2.1-1.9,2.8-2.2c2.1-0.9,9.1-1.8,11.2,1.1l-1.2,0.9c-1.4-2-7.4-1.4-9.4-0.6
				c-0.4,0.2-1.4,1.1-2.3,1.9C399.3,158.1,395.7,161.4,392.5,161.4z"/>
		</g>
	</g>
</g>
<g id="Layer_71">
	<g>
		<polygon class="st42" points="639.5,372.4 637.3,389 655.4,381.8 		"/>
	</g>
</g>
<g id="Layer_75">
	<linearGradient id="SVGID_1_" gradientUnits="userSpaceOnUse" x1="350.7901" y1="322.0399" x2="435.417" y2="367.2822">
		<stop  offset="0.5367" style="stop-color:#FFFFFF;stop-opacity:0"/>
		<stop  offset="1" style="stop-color:#FFFFFF;stop-opacity:0.3"/>
	</linearGradient>
	<polygon class="st43" points="438.1,353.7 403.2,303.1 342.1,364.4 414.6,389.3 	"/>
</g>
</svg>
